<?xml version="1.0" standalone="no"?>
<!DOCTYPE svg PUBLIC "-//W3C//DTD SVG 20010904//EN"
 "http://www.w3.org/TR/2001/REC-SVG-20010904/DTD/svg10.dtd">
<svg version="1.0" xmlns="http://www.w3.org/2000/svg"
 width="2500.000000pt" height="2500.000000pt" viewBox="0 0 2500.000000 2500.000000"
 preserveAspectRatio="xMidYMid meet">
<metadata>
Created by potrace 1.14, written by Peter Selinger 2001-2017
</metadata>
<g transform="translate(0.000000,2500.000000) scale(0.100000,-0.100000)"
fill="#000000" stroke="none">
<path d="M0 12500 l0 -12500 12500 0 12500 0 0 12500 0 12500 -12500 0 -12500
0 0 -12500z m13338 3722 c-161 -160 -285 -262 -315 -262 -4 0 26 22 67 49 49
32 135 109 250 225 l175 176 -572 572 -573 573 -1892 -1892 -1891 -1892 64
-66 c35 -36 66 -70 67 -76 2 -5 -29 24 -70 65 l-74 75 1898 1898 1898 1898
578 -578 579 -578 -189 -187z m-910 -166 c32 -24 71 -51 89 -60 17 -9 35 -21
39 -28 13 -21 -114 60 -159 101 l-29 26 -29 -35 c-18 -20 -27 -27 -22 -15 6
17 41 54 51 55 2 0 29 -20 60 -44z m-134 -39 c-2 -7 -14 -19 -27 -26 -21 -13
-21 -12 2 13 27 29 33 32 25 13z m354 -72 c2 -2 0 -5 -5 -8 -4 -3 -21 1 -38 8
l-30 14 35 -6 c19 -3 36 -7 38 -8z m359 9 c-3 -3 -12 -4 -19 -1 -8 3 -5 6 6 6
11 1 17 -2 13 -5z m-787 -7 c0 -2 -12 -14 -27 -28 l-28 -24 24 28 c23 25 31
32 31 24z m470 -17 c0 -5 -4 -10 -9 -10 -6 0 -13 5 -16 10 -3 6 1 10 9 10 9 0
16 -4 16 -10z m235 -1 c-48 -15 -190 -23 -209 -12 -13 7 -3 9 36 6 29 -2 78 0
108 5 72 13 104 13 65 1z m4130 -323 c39 -62 77 -133 95 -181 18 -47 3 -24
-40 61 -22 44 -50 97 -63 118 -28 49 -217 247 -229 240 -5 -3 -8 -2 -7 3 4 25
-5 22 -36 -10 -20 -21 -39 -37 -43 -37 -3 0 12 18 33 41 l40 40 106 -108 c59
-60 123 -135 144 -167z m-4921 251 c-2 -7 -14 -19 -27 -26 -21 -13 -21 -12 2
13 27 29 33 32 25 13z m-74 -70 c0 -2 -12 -14 -27 -28 l-28 -24 24 28 c23 25
31 32 31 24z m4635 -37 c-16 -17 -33 -30 -39 -30 -5 0 5 16 24 35 18 19 36 32
39 30 2 -3 -8 -19 -24 -35z m-4715 -43 c0 -2 -12 -14 -27 -28 l-28 -24 24 28
c23 25 31 32 31 24z m4635 -37 c-16 -17 -33 -30 -39 -30 -5 0 5 16 24 35 18
19 36 32 39 30 2 -3 -8 -19 -24 -35z m-4715 -43 c0 -2 -12 -14 -27 -28 l-28
-24 24 28 c23 25 31 32 31 24z m4644 -28 c-10 -11 -28 -26 -39 -31 -12 -7 -7
3 14 26 36 37 59 42 25 5z m-4724 -52 c0 -2 -12 -14 -27 -28 l-28 -24 24 28
c23 25 31 32 31 24z m4630 -37 c-46 -41 -52 -38 -10 5 18 19 36 32 39 30 2 -3
-11 -19 -29 -35z m-4710 -43 c0 -2 -12 -14 -27 -28 l-28 -24 24 28 c23 25 31
32 31 24z m4654 -9 c-13 -24 -47 -58 -58 -58 -5 0 5 16 24 35 35 37 46 44 34
23z m-4734 -71 c0 -2 -12 -14 -27 -28 l-28 -24 24 28 c23 25 31 32 31 24z
m4644 -28 c-10 -11 -28 -26 -39 -31 -12 -7 -7 3 14 26 36 37 59 42 25 5z m870
-14 c5 -19 4 -26 -2 -20 -5 6 -13 24 -16 40 -5 19 -4 26 2 20 5 -5 13 -23 16
-40z m-5594 -38 c0 -2 -12 -14 -27 -28 l-28 -24 24 28 c23 25 31 32 31 24z
m4660 -1 c0 -7 -61 -66 -68 -66 -3 0 9 16 28 35 33 34 40 39 40 31z m949 -46
c0 -23 -1 -23 -9 -5 -5 11 -9 29 -9 40 -1 17 1 17 9 5 5 -8 9 -26 9 -40z
m-5701 -50 c-7 -11 -19 -22 -28 -25 -8 -4 -4 5 9 19 29 31 36 33 19 6z m4660
-2 c-8 -12 -25 -28 -39 -37 -18 -11 -16 -6 10 22 39 42 50 48 29 15z m1049
-111 c-2 -23 -3 -1 -3 48 0 50 1 68 3 42 2 -26 2 -67 0 -90z m-5777 50 c0 -2
-12 -14 -27 -28 l-28 -24 24 28 c23 25 31 32 31 24z m4660 -2 c0 -8 -59 -65
-67 -65 -4 0 8 16 27 35 34 35 40 40 40 30z m-4740 -78 c0 -2 -12 -14 -27 -28
l-28 -24 24 28 c23 25 31 32 31 24z m4631 -37 c-45 -41 -52 -38 -11 5 18 19
36 32 39 30 3 -3 -10 -19 -28 -35z m1219 16 c0 -3 -4 -8 -10 -11 -5 -3 -10 -1
-10 4 0 6 5 11 10 11 6 0 10 -2 10 -4z m-9541 -21 c129 -27 291 -123 393 -234
167 -180 163 -389 -13 -608 -46 -58 -204 -203 -222 -203 -4 0 0 17 8 37 9 21
16 61 16 89 2 130 -103 242 -288 306 -56 19 -88 23 -178 23 -99 0 -115 -3
-160 -27 -56 -29 -99 -68 -123 -113 -28 -50 -22 -193 11 -281 97 -259 364
-592 582 -726 368 -226 799 -252 1343 -81 45 14 82 29 82 32 0 3 -84 89 -185
190 -102 102 -185 188 -185 191 0 4 73 -67 162 -156 89 -90 166 -160 171 -157
6 3 7 2 4 -4 -9 -15 35 -51 57 -48 20 4 106 37 171 66 22 10 74 32 115 51 154
68 386 199 558 315 51 35 97 63 103 63 6 0 45 26 87 58 381 289 821 511 1197
606 329 83 712 77 952 -16 140 -54 139 -53 181 -34 272 131 686 146 1082 40
304 -81 642 -243 973 -468 82 -56 163 -110 180 -120 18 -11 75 -50 127 -86 52
-37 154 -102 225 -144 72 -42 137 -81 145 -86 20 -13 261 -131 330 -163 30
-13 89 -40 130 -60 266 -123 679 -200 950 -177 399 36 693 204 946 542 234
313 304 567 194 700 -148 179 -589 93 -696 -137 -28 -58 -30 -102 -9 -170 8
-27 13 -51 11 -53 -6 -5 -135 105 -179 152 -41 45 -137 182 -137 197 0 27 -45
-14 -287 -253 -145 -145 -267 -265 -271 -268 -4 -2 115 119 264 270 l271 275
-14 55 c-8 34 -12 83 -9 128 7 106 46 185 139 276 160 159 317 226 530 226
375 0 731 -367 798 -822 17 -116 7 -325 -20 -409 -43 -137 -190 -314 -369
-447 -503 -373 -1293 -625 -2137 -682 -334 -22 -930 -7 -1168 30 -267 41 -524
88 -552 100 -28 12 -126 34 -147 32 -10 0 -17 4 -15 10 1 6 -36 23 -83 39
-267 91 -506 224 -707 393 -49 41 -107 96 -129 122 -23 27 -54 63 -68 79 -90
102 -207 307 -260 455 -33 90 -76 263 -76 305 0 23 -3 27 -10 15 -5 -8 -10
-28 -10 -43 0 -83 -72 -300 -150 -452 -79 -155 -166 -272 -294 -400 -147 -145
-298 -252 -496 -351 -121 -60 -325 -138 -430 -164 -25 -6 -51 -13 -59 -16 -9
-3 245 -264 675 -694 379 -380 691 -694 694 -698 8 -14 -312 304 -848 841
-373 373 -541 535 -552 531 -8 -3 -60 -14 -115 -25 -55 -10 -118 -23 -140 -29
-22 -6 -87 -17 -145 -25 -58 -8 -132 -19 -165 -24 -109 -17 -438 -41 -579 -42
l-139 -1 678 -678 c374 -373 683 -676 689 -673 5 3 6 2 3 -4 -3 -5 157 -172
356 -371 200 -199 360 -362 356 -362 -3 0 -476 470 -1050 1045 l-1044 1045
-150 0 c-427 1 -905 67 -1320 181 -542 150 -985 375 -1272 645 -35 33 -120
136 -148 179 -129 201 -125 556 9 841 182 385 512 581 855 509z m3611 -38 c0
-2 -12 -14 -27 -28 l-28 -24 24 28 c23 25 31 32 31 24z m4644 -28 c-10 -11
-28 -26 -39 -31 -12 -7 -7 3 14 26 36 37 59 42 25 5z m-4724 -52 c0 -2 -12
-14 -27 -28 l-28 -24 24 28 c23 25 31 32 31 24z m4660 -2 c0 -7 -59 -65 -67
-65 -4 0 8 16 27 35 33 35 40 39 40 30z m-4740 -78 c0 -2 -12 -14 -27 -28
l-28 -24 24 28 c23 25 31 32 31 24z m4660 -2 c0 -8 -59 -65 -67 -65 -4 0 8 16
27 35 34 35 40 40 40 30z m-4740 -78 c0 -2 -12 -14 -27 -28 l-28 -24 24 28
c23 25 31 32 31 24z m4631 -37 c-45 -41 -52 -38 -11 5 18 19 36 32 39 30 3 -3
-10 -19 -28 -35z m-4711 -43 c0 -2 -12 -14 -27 -28 l-28 -24 24 28 c23 25 31
32 31 24z m4660 0 c0 -8 -58 -67 -65 -67 -5 0 6 16 25 35 32 33 40 39 40 32z
m-4751 -94 c-17 -21 -31 -33 -42 -33 -8 0 44 49 52 50 2 0 -3 -8 -10 -17z
m4655 -14 c-10 -11 -28 -26 -39 -31 -12 -7 -7 3 14 26 36 37 59 42 25 5z
m-4730 -62 c-2 -7 -14 -19 -27 -26 -21 -13 -21 -12 2 13 27 29 33 32 25 13z
m4666 8 c0 -8 -59 -65 -67 -65 -4 0 8 16 27 35 34 35 40 40 40 30z m-4740 -78
c0 -2 -12 -14 -27 -28 l-28 -24 24 28 c23 25 31 32 31 24z m4644 -28 c-10 -11
-28 -26 -39 -31 -12 -7 -7 3 14 26 36 37 59 42 25 5z m-4730 -62 c-2 -7 -14
-19 -27 -26 -21 -13 -21 -12 2 13 27 29 33 32 25 13z m4650 -18 c-10 -11 -28
-26 -39 -31 -12 -7 -7 3 14 26 36 37 59 42 25 5z m-4724 -52 c0 -2 -12 -14
-27 -28 l-28 -24 24 28 c23 25 31 32 31 24z m4635 -37 c-16 -17 -33 -30 -39
-30 -5 0 5 16 24 35 18 19 36 32 39 30 2 -3 -8 -19 -24 -35z m-4690 -28 c-6
-4 -24 -18 -40 -32 -29 -24 -29 -23 2 8 18 17 36 32 40 32 4 0 3 -3 -2 -8z
m4635 -17 c0 -7 -59 -65 -67 -65 -4 0 8 16 27 35 33 35 40 39 40 30z m-4740
-78 c0 -2 -12 -14 -27 -28 l-28 -24 24 28 c23 25 31 32 31 24z m4635 -37 c-16
-17 -33 -30 -39 -30 -5 0 5 16 24 35 18 19 36 32 39 30 2 -3 -8 -19 -24 -35z
m-4721 -53 c-2 -7 -14 -19 -27 -26 -21 -13 -21 -12 2 13 27 29 33 32 25 13z
m4660 1 c-13 -24 -47 -58 -58 -58 -5 0 5 16 24 35 35 37 46 44 34 23z m-4734
-71 c0 -2 -12 -14 -27 -28 l-28 -24 24 28 c23 25 31 32 31 24z m4648 -19 c-8
-12 -25 -28 -39 -37 -18 -11 -16 -6 10 22 39 42 50 48 29 15z m-4703 -48 c-12
-19 -43 -31 -51 -18 -4 6 -3 8 3 5 6 -4 19 0 29 8 23 17 27 18 19 5z m4632
-29 c0 -11 -6 -17 -14 -14 -7 3 -16 -2 -19 -11 -3 -9 -11 -16 -17 -16 -6 0 2
14 18 30 34 35 34 35 32 11z m-4702 -35 c-9 -13 -23 -27 -31 -30 -9 -3 -3 7
13 24 34 36 39 38 18 6z m6088 -34 c-10 -10 -20 -17 -22 -16 -6 5 20 34 30 34
5 0 1 -8 -8 -18z m-45 -42 c-7 -10 -14 -17 -17 -15 -4 4 18 35 25 35 2 0 -1
-9 -8 -20z m-98 -95 c-41 -41 -77 -75 -79 -75 -3 0 28 34 69 75 41 41 77 75
79 75 3 0 -28 -34 -69 -75z m-103 -108 c-39 -40 -63 -53 -27 -14 19 20 38 37
42 37 4 0 -3 -10 -15 -23z m-75 -74 c-43 -41 -64 -55 -33 -20 19 20 39 37 43
37 4 0 0 -8 -10 -17z m-112 -108 c-24 -25 -46 -45 -49 -45 -3 0 15 20 39 45
24 25 46 45 49 45 3 0 -15 -20 -39 -45z m-1990 -530 c0 -7 -59 -65 -67 -65 -4
0 8 16 27 35 33 35 40 39 40 30z m-80 -79 c0 -7 -61 -66 -68 -66 -3 0 9 16 28
35 33 34 40 39 40 31z m-96 -107 c-10 -11 -28 -26 -39 -31 -12 -7 -7 3 14 26
36 37 59 42 25 5z m1466 18 c0 -2 -10 -12 -22 -23 l-23 -19 19 23 c18 21 26
27 26 19z m-71 -74 c-46 -51 -59 -63 -59 -56 0 8 71 83 79 83 2 0 -6 -12 -20
-27z m-1459 3 c0 -7 -61 -66 -68 -66 -3 0 9 16 28 35 33 34 40 39 40 31z
m1379 -83 c-23 -27 -133 -136 -159 -158 -14 -11 18 24 70 78 87 89 122 121 89
80z m-1488 -33 c-45 -41 -52 -38 -11 5 18 19 36 32 39 30 3 -3 -10 -19 -28
-35z m-51 -44 c0 -7 -61 -66 -68 -66 -3 0 9 16 28 35 33 34 40 39 40 31z m-80
-80 c0 -7 -61 -66 -68 -66 -3 0 9 16 28 35 33 34 40 39 40 31z m1259 -203
c-81 -82 -164 -164 -185 -183 -22 -19 42 47 141 148 99 100 182 182 185 182 3
0 -60 -66 -141 -147z m-1339 123 c0 -7 -61 -66 -68 -66 -3 0 9 16 28 35 33 34
40 39 40 31z m-80 -80 c0 -7 -61 -66 -68 -66 -3 0 9 16 28 35 33 34 40 39 40
31z m-105 -116 c-16 -17 -33 -30 -39 -30 -5 0 5 16 24 35 18 19 36 32 39 30 2
-3 -8 -19 -24 -35z m-55 -45 c0 -7 -59 -65 -67 -65 -4 0 8 16 27 35 33 35 40
39 40 30z m-80 -80 c0 -7 -59 -65 -67 -65 -4 0 8 16 27 35 33 35 40 39 40 30z
m1418 -45 c-7 -10 -14 -17 -17 -15 -4 4 18 35 25 35 2 0 -1 -9 -8 -20z m-28
-24 c0 -2 -8 -10 -17 -17 -16 -13 -17 -12 -4 4 13 16 21 21 21 13z m-1470 -11
c0 -7 -59 -65 -67 -65 -4 0 8 16 27 35 33 35 40 39 40 30z m1430 -29 c0 -2 -8
-10 -17 -17 -16 -13 -17 -12 -4 4 13 16 21 21 21 13z m-31 -39 c-2 -1 -13 -9
-24 -17 -19 -14 -19 -14 -6 3 7 9 18 17 24 17 6 0 8 -1 6 -3z m-1479 -10 c0
-2 -15 -16 -32 -33 l-33 -29 29 33 c28 30 36 37 36 29z m1430 -31 c0 -2 -8
-10 -17 -17 -16 -13 -17 -12 -4 4 13 16 21 21 21 13z m-56 -57 c-45 -49 -134
-137 -134 -131 0 7 142 152 149 152 2 0 -4 -9 -15 -21z m-1464 -2 c0 -2 -12
-14 -27 -28 l-28 -24 24 28 c23 25 31 32 31 24z m-70 -70 c0 -2 -15 -16 -32
-33 l-33 -29 29 33 c28 30 36 37 36 29z m1390 -70 c0 -2 -17 -19 -37 -38 l-38
-34 34 38 c33 34 41 42 41 34z m-97 -101 c-10 -13 -20 -22 -22 -20 -4 4 29 44
36 44 2 0 -4 -11 -14 -24z m-188 -189 c-85 -86 -155 -153 -155 -150 0 9 303
313 307 309 2 -2 -67 -73 -152 -159z m-165 -161 c0 -3 -34 -39 -75 -80 -41
-42 -75 -73 -75 -70 0 6 141 154 147 154 2 0 3 -2 3 -4z m-272 -273 c-131
-129 -136 -131 -13 -5 55 56 102 102 106 102 3 0 -38 -44 -93 -97z m-130 -133
c-7 -10 -14 -17 -17 -15 -4 4 18 35 25 35 2 0 -1 -9 -8 -20z m-63 -61 c-61
-64 -149 -148 -153 -145 -1 2 39 44 90 94 95 94 133 125 63 51z m-1137 -163
c28 -21 52 -40 52 -42 0 -13 -127 84 -155 117 -13 16 -7 13 15 -7 19 -17 59
-47 88 -68z m952 -6 c-35 -28 -130 -80 -130 -71 0 5 18 16 40 26 22 10 55 29
72 42 39 28 53 30 18 3z m-804 -75 c37 -19 62 -35 55 -35 -6 0 -31 10 -54 22
-23 12 -44 22 -47 23 -13 2 -44 24 -33 25 6 0 42 -16 79 -35z m643 -19 c-13
-11 -49 -16 -49 -6 0 6 4 9 8 6 4 -2 14 -1 22 4 13 8 29 5 19 -4z m-529 -26
c0 -5 -2 -10 -4 -10 -3 0 -8 5 -11 10 -3 6 -1 10 4 10 6 0 11 -4 11 -10z m440
0 c0 -5 -4 -10 -10 -10 -5 0 -10 5 -10 10 0 6 5 10 10 10 6 0 10 -4 10 -10z
m-385 -10 c19 -8 19 -9 -2 -9 -12 -1 -25 4 -28 9 -7 12 2 12 30 0z m350 0 c-3
-5 -18 -9 -33 -9 l-27 1 30 8 c17 4 31 8 33 9 2 0 0 -3 -3 -9z m-262 -17 c-13
-2 -33 -2 -45 0 -13 2 -3 4 22 4 25 0 35 -2 23 -4z m185 0 c-10 -2 -28 -2 -40
0 -13 2 -5 4 17 4 22 1 32 -1 23 -4z m-100 -10 c-10 -2 -26 -2 -35 0 -10 3 -2
5 17 5 19 0 27 -2 18 -5z m-5293 -553 c121 -14 259 -52 347 -95 40 -20 74 -38
76 -39 2 -2 -22 -67 -54 -144 l-57 -141 -48 25 c-230 116 -549 131 -658 31
-51 -47 -65 -128 -32 -183 28 -46 101 -76 337 -138 229 -60 297 -82 364 -116
65 -33 156 -125 188 -189 24 -51 27 -66 27 -166 0 -127 -14 -179 -73 -265
-101 -149 -292 -233 -562 -247 -164 -9 -405 34 -550 98 -60 26 -150 81 -150
91 0 5 23 59 51 121 28 61 55 123 60 135 l9 24 33 -22 c63 -42 181 -92 273
-116 251 -63 475 -28 528 84 21 44 20 80 -4 119 -37 62 -114 95 -350 153 -156
38 -269 74 -340 108 -81 40 -162 120 -196 194 -27 59 -29 71 -29 183 1 114 2
124 32 188 108 230 408 349 778 307z m5445 -20 c168 -40 354 -153 456 -276
144 -173 213 -406 186 -629 -45 -361 -285 -627 -648 -717 -133 -33 -351 -31
-486 5 -292 77 -500 270 -595 552 -25 74 -27 92 -28 250 0 151 3 178 23 245
106 337 372 547 752 594 71 9 257 -5 340 -24z m-8724 -358 c116 -194 213 -354
215 -356 2 -2 101 158 219 355 l215 359 863 0 863 0 -3 -152 -3 -153 -257 0
-258 0 0 -657 0 -658 -190 0 -190 0 0 658 0 657 -257 0 -258 0 -3 99 -3 99
-284 -474 -285 -474 0 -282 0 -283 -185 0 -185 0 0 289 0 290 -291 483 c-160
266 -295 487 -300 493 -5 5 -9 22 -9 37 l0 28 187 -2 187 -3 212 -353z m5078
346 c-5 -7 -162 -226 -351 -485 -189 -260 -343 -474 -343 -475 0 -2 97 -3 215
-3 l215 0 0 153 0 152 176 -2 177 -3 1 -150 1 -149 130 -1 130 0 3 -152 3
-153 -136 0 -135 0 0 -170 0 -170 -180 0 -180 0 0 170 0 170 -435 0 -435 0 0
128 0 129 148 199 c81 109 207 278 278 374 72 96 176 237 232 313 l102 137
196 0 c153 0 194 -3 188 -12z m2446 -143 l0 -155 -260 3 -260 2 0 -657 0 -658
-185 0 -185 0 0 658 0 657 -260 -3 -260 -3 0 156 0 155 705 0 705 0 0 -155z
m3065 130 c236 -59 402 -214 451 -422 23 -99 15 -256 -19 -346 -45 -118 -129
-214 -241 -277 l-56 -32 67 -96 c37 -54 118 -169 180 -257 l111 -160 -191 -3
c-105 -1 -196 -1 -203 2 -6 2 -79 104 -163 225 l-153 221 -174 0 -174 0 0
-225 0 -225 -185 0 -185 0 0 811 0 810 433 -4 c370 -3 442 -6 502 -22z m1710
-3 c237 -65 392 -213 441 -419 23 -99 15 -256 -19 -346 -45 -118 -129 -214
-241 -277 l-56 -32 67 -96 c37 -54 118 -169 180 -257 l111 -160 -191 -3 c-105
-1 -197 0 -203 2 -6 2 -80 104 -163 225 l-152 221 -175 0 -174 0 0 -225 0
-225 -185 0 -185 0 0 811 0 810 433 -3 c406 -4 437 -6 512 -26z m1975 -122 l0
-150 -425 0 -425 0 0 -175 0 -175 375 0 375 0 0 -150 0 -151 -375 3 -375 3 0
-187 0 -188 440 0 440 0 0 -150 0 -150 -625 0 -625 0 0 810 0 810 610 0 610 0
0 -150z m1039 -340 l401 -491 0 491 0 490 185 0 185 0 0 -810 0 -810 -153 0
-153 0 -79 98 c-44 53 -224 272 -400 486 l-320 390 -3 -487 -2 -487 -185 0
-185 0 0 810 0 810 154 0 153 0 402 -490z m2381 335 l0 -156 -260 3 -260 3 0
-657 0 -658 -185 0 -185 0 0 658 0 657 -260 -2 -260 -2 0 154 0 155 705 0 705
0 0 -155z m-14775 -2922 c83 -44 122 -115 112 -205 -8 -66 -39 -112 -95 -146
-44 -25 -56 -27 -179 -30 l-133 -4 0 -94 0 -94 -30 0 -30 0 0 301 0 301 158
-4 c135 -4 163 -7 197 -25z m317 -190 c3 -239 8 -260 71 -307 41 -30 173 -31
213 0 71 53 87 122 82 369 l-3 155 33 0 32 0 0 -190 c0 -104 -5 -212 -11 -239
-24 -114 -109 -176 -239 -176 -140 0 -217 66 -240 205 -5 36 -10 140 -10 233
l0 167 34 0 35 0 3 -217z m854 -23 l189 -240 3 240 2 240 35 0 35 0 0 -300 0
-300 -30 0 c-27 0 -48 23 -217 235 l-188 235 -3 -235 -2 -235 -35 0 -35 0 0
300 0 300 28 0 c26 0 50 -27 218 -240z m692 -7 c-3 -228 -5 -251 -23 -283 -31
-51 -78 -75 -150 -75 -65 0 -130 28 -154 67 -10 17 -9 23 6 40 17 19 18 19 33
1 31 -38 64 -53 115 -53 41 0 56 5 74 24 34 36 40 83 41 284 l0 182 -110 0
-110 0 0 30 0 30 141 0 140 0 -3 -247z m519 25 c56 -123 117 -258 137 -301
l36 -78 -36 3 c-34 3 -37 6 -68 78 l-33 75 -169 3 -169 2 -34 -80 c-32 -78
-34 -80 -67 -80 -30 0 -33 3 -26 18 5 9 67 144 137 300 l128 282 32 0 c31 0
32 -1 132 -222z m663 192 c58 -32 83 -78 77 -143 -3 -40 -11 -56 -40 -85 l-36
-35 32 -16 c17 -9 42 -32 55 -51 32 -48 28 -137 -9 -176 -51 -56 -87 -64 -286
-64 l-183 0 0 301 0 301 173 -4 c162 -3 175 -5 217 -28z m320 -270 l0 -300
-35 0 -35 0 0 300 0 300 35 0 35 0 0 -300z m600 78 c69 -119 128 -216 132
-215 4 1 64 99 132 217 107 184 128 215 150 218 l26 3 0 -300 0 -301 -30 0
-30 0 0 233 0 232 -33 -53 c-17 -29 -70 -117 -117 -197 -50 -86 -91 -145 -100
-144 -9 0 -63 81 -130 195 l-115 195 -3 -230 -2 -231 -30 0 -30 0 0 301 0 300
27 -3 c24 -3 42 -29 153 -220z m1015 205 c71 -25 156 -111 180 -182 41 -125 0
-267 -100 -343 -60 -45 -120 -63 -210 -62 -121 1 -224 65 -276 172 -35 73 -33
188 4 264 52 107 153 166 282 168 42 0 90 -7 120 -17z m379 -191 c49 -114 101
-231 116 -260 l25 -52 115 260 115 260 32 0 33 0 -26 -57 c-14 -32 -73 -167
-132 -300 l-106 -243 -38 0 c-21 0 -38 5 -38 10 0 6 -58 141 -129 300 l-128
290 36 0 36 -1 89 -207z m576 -92 l0 -300 -30 0 -30 0 0 300 0 300 30 0 30 0
0 -300z m610 270 l0 -30 -175 0 -175 0 0 -105 0 -105 155 0 155 0 0 -25 0 -25
-155 0 -155 0 0 -115 0 -115 180 0 180 0 0 -25 0 -25 -210 0 -210 0 0 300 0
300 205 0 205 0 0 -30z m478 5 c39 -16 43 -20 37 -44 -4 -14 -8 -27 -10 -29
-2 -2 -23 7 -47 19 -58 31 -178 33 -225 5 -56 -34 -69 -96 -30 -141 16 -20 51
-35 141 -61 66 -20 132 -44 148 -55 42 -30 61 -74 55 -127 -6 -58 -32 -91 -93
-122 -67 -34 -194 -35 -271 -1 -64 28 -77 43 -69 76 l7 26 29 -21 c69 -49 202
-66 276 -35 64 27 79 116 25 154 -15 11 -69 31 -121 46 -166 47 -210 81 -210
167 0 78 35 127 115 156 44 17 191 9 243 -13z m803 10 c23 -9 58 -27 77 -41
34 -26 34 -27 14 -46 -19 -20 -20 -20 -58 6 -105 69 -259 49 -334 -42 -88
-107 -75 -265 30 -354 85 -73 230 -79 310 -11 l31 26 21 -23 21 -23 -24 -19
c-128 -101 -331 -84 -438 38 -49 56 -71 119 -71 203 1 107 35 178 116 239 24
19 63 40 86 47 58 18 166 18 219 0z m309 -120 l0 -135 185 0 185 0 0 135 0
135 35 0 35 0 0 -300 0 -300 -35 0 -35 0 0 140 0 140 -185 0 -185 0 0 -140 0
-140 -35 0 -35 0 0 300 0 300 35 0 35 0 0 -135z m1006 -163 c74 -161 134 -295
134 -298 0 -2 -15 -4 -32 -4 -32 0 -35 4 -68 80 l-34 80 -167 0 -167 0 -33
-80 c-33 -76 -35 -80 -66 -80 -18 0 -33 2 -33 5 0 5 258 574 267 588 3 4 19 7
35 5 30 -3 34 -11 164 -296z m480 58 l189 -240 3 240 2 240 35 0 35 0 0 -300
0 -300 -29 0 c-26 0 -49 25 -218 234 l-188 234 -3 -234 -2 -234 -35 0 -35 0 0
300 0 300 28 0 c25 0 51 -28 218 -240z m699 -4 l190 -242 3 243 2 243 30 0 30
0 0 -301 0 -300 -29 3 c-24 3 -58 40 -217 238 l-189 235 -3 -238 -2 -237 -30
0 -30 0 0 300 0 300 28 -1 c23 0 53 -33 217 -243z m865 214 l0 -30 -175 0
-175 0 0 -105 0 -105 155 0 155 0 0 -25 0 -25 -155 0 -155 0 0 -115 0 -115
180 0 180 0 0 -25 0 -25 -215 0 -215 0 0 300 0 300 210 0 210 0 0 -30z m220
-245 l0 -275 169 0 169 0 -2 -25 -1 -25 -202 0 -203 0 0 300 0 300 35 0 35 0
0 -275z"/>
<path d="M12220 9443 c-155 -26 -302 -130 -370 -263 -68 -133 -68 -367 0 -499
105 -205 348 -311 580 -252 103 26 175 68 244 141 229 248 155 685 -140 824
-95 45 -220 65 -314 49z"/>
<path d="M13840 9151 l0 -281 193 0 c133 0 208 5 245 14 149 40 220 137 210
290 -8 114 -53 182 -153 228 -47 21 -65 23 -272 26 l-223 3 0 -280z"/>
<path d="M15540 9153 l0 -283 193 0 c248 0 314 16 391 96 92 95 87 293 -11
386 -58 55 -116 72 -258 75 -71 2 -172 4 -223 6 l-92 2 0 -282z"/>
<path d="M6440 6479 l0 -151 118 4 c128 4 166 17 205 69 26 35 26 116 1 160
-33 56 -73 69 -206 69 l-118 0 0 -151z"/>
<path d="M8914 6461 l-71 -156 68 -3 c37 -2 101 -2 142 0 l73 3 -71 156 -71
156 -70 -156z"/>
<path d="M9450 6525 l0 -105 125 0 c174 0 217 21 217 105 0 84 -43 105 -217
105 l-125 0 0 -105z"/>
<path d="M9450 6250 l0 -112 148 4 c174 4 204 15 223 77 14 48 3 87 -35 115
-24 19 -44 21 -182 24 l-154 3 0 -111z"/>
<path d="M11512 6622 c-105 -38 -161 -119 -162 -235 0 -140 83 -232 222 -244
178 -17 305 126 268 302 -30 145 -184 228 -328 177z"/>
<path d="M15640 6464 c-36 -80 -66 -150 -68 -155 -2 -5 55 -9 138 -9 78 0 140
4 138 8 -30 74 -134 302 -138 302 -3 0 -35 -66 -70 -146z"/>
</g>
</svg>
