<?xml version="1.0" standalone="no"?>
<!DOCTYPE svg PUBLIC "-//W3C//DTD SVG 20010904//EN"
 "http://www.w3.org/TR/2001/REC-SVG-20010904/DTD/svg10.dtd">
<svg version="1.0" xmlns="http://www.w3.org/2000/svg"
 width="1080.000000pt" height="1080.000000pt" viewBox="0 0 1080.000000 1080.000000"
 preserveAspectRatio="xMidYMid meet">
<metadata>
Created by potrace 1.14, written by Peter Selinger 2001-2017
</metadata>
<g transform="translate(0.000000,1080.000000) scale(0.100000,-0.100000)"
fill="#000000" stroke="none">
<path d="M5158 10155 c-2 -1 -46 -5 -98 -9 -52 -4 -108 -9 -125 -11 -16 -2
-55 -7 -85 -10 -30 -4 -64 -8 -75 -10 -11 -2 -40 -7 -65 -10 -25 -3 -92 -16
-150 -27 -58 -11 -109 -21 -115 -22 -5 -1 -19 -5 -30 -9 -11 -3 -31 -9 -45
-11 -128 -28 -232 -58 -397 -116 -65 -23 -134 -47 -153 -53 -19 -6 -38 -16
-42 -22 -4 -5 -8 -7 -8 -2 0 4 -17 -1 -37 -12 -21 -10 -42 -20 -48 -21 -5 -1
-28 -10 -50 -19 -48 -22 -73 -31 -81 -30 -4 0 -10 -3 -13 -8 -3 -4 -57 -33
-120 -63 -63 -30 -119 -59 -125 -65 -6 -5 -37 -23 -70 -40 -32 -16 -81 -44
-108 -62 -27 -18 -52 -33 -55 -33 -4 0 -21 -11 -39 -25 -18 -14 -36 -25 -41
-25 -4 0 -21 -11 -36 -25 -15 -14 -27 -22 -27 -18 0 4 -4 4 -8 -2 -4 -5 -36
-30 -72 -55 -36 -24 -70 -49 -76 -55 -6 -5 -22 -17 -34 -25 -12 -8 -28 -19
-34 -25 -6 -5 -34 -28 -61 -50 -28 -22 -56 -44 -63 -50 -7 -5 -30 -26 -51 -45
-22 -19 -62 -55 -91 -80 -101 -88 -275 -267 -380 -390 -35 -41 -66 -77 -69
-80 -3 -3 -19 -23 -36 -45 -16 -22 -31 -42 -35 -45 -9 -8 -113 -151 -145 -200
-17 -25 -32 -47 -35 -50 -9 -8 -110 -173 -173 -280 -102 -175 -304 -616 -321
-700 -2 -8 -6 -24 -10 -35 -10 -25 -17 -48 -18 -55 0 -3 -9 -26 -19 -52 -10
-27 -16 -48 -14 -48 3 0 -1 -13 -10 -30 -9 -16 -13 -30 -11 -30 3 0 1 -12 -5
-27 -6 -16 -13 -39 -15 -53 -3 -14 -9 -36 -14 -50 -9 -26 -45 -189 -55 -250
-4 -19 -10 -53 -15 -75 -5 -22 -11 -60 -15 -85 -3 -25 -10 -72 -16 -105 -23
-151 -34 -328 -34 -580 0 -268 12 -468 39 -635 2 -14 8 -47 12 -75 4 -27 8
-54 10 -60 1 -5 5 -28 9 -50 4 -22 11 -60 17 -85 5 -25 12 -56 14 -70 3 -14
10 -43 16 -65 5 -22 12 -48 14 -57 2 -10 6 -27 9 -38 3 -11 7 -28 9 -37 29
-116 139 -435 185 -536 11 -23 23 -55 26 -70 4 -15 11 -27 16 -27 5 0 9 -7 9
-15 0 -17 204 -420 220 -435 3 -3 19 -27 35 -55 44 -78 192 -294 255 -375 11
-14 41 -52 67 -85 67 -86 196 -235 227 -263 10 -9 24 -23 30 -30 107 -120 414
-395 527 -472 12 -8 39 -30 61 -47 22 -18 43 -33 47 -33 5 0 17 -8 29 -17 11
-10 30 -25 42 -33 12 -8 33 -23 45 -32 13 -10 26 -18 29 -18 3 0 43 -24 88
-54 126 -81 416 -234 558 -295 103 -43 301 -121 318 -125 9 -1 31 -9 47 -15
17 -7 35 -14 40 -15 6 -1 37 -11 70 -21 33 -10 65 -19 70 -21 6 -1 46 -12 90
-24 123 -34 338 -80 440 -95 17 -2 46 -6 65 -9 216 -33 338 -40 635 -40 301 0
434 8 625 39 14 2 45 7 70 10 25 3 52 7 60 10 8 3 29 7 45 9 98 14 313 65 465
111 47 14 92 27 100 30 66 17 362 134 485 190 44 20 89 41 100 46 30 14 225
120 291 158 195 113 536 358 655 471 10 8 50 44 90 80 113 101 219 210 374
385 11 13 34 40 50 61 17 21 39 48 50 60 11 12 28 33 37 46 9 13 35 48 57 78
22 30 44 60 48 65 15 18 58 79 68 97 6 9 37 59 69 110 106 167 108 171 189
327 32 62 62 121 68 130 17 31 132 307 166 401 56 156 151 488 166 585 3 17
12 64 21 105 8 41 17 93 20 115 2 22 5 40 6 40 2 0 4 18 14 95 3 30 8 69 11
85 13 97 20 270 20 485 0 266 -5 356 -35 585 -7 50 -14 101 -15 115 -3 22 -12
66 -22 110 -1 8 -5 29 -8 45 -8 53 -14 80 -46 201 -16 66 -31 124 -33 129 -1
6 -6 26 -10 45 -5 19 -13 41 -18 48 -6 6 -8 12 -5 12 5 0 -52 181 -72 225 -4
11 -19 47 -31 80 -43 114 -104 250 -177 395 -66 132 -94 183 -142 261 -55 91
-88 144 -101 164 -81 121 -112 165 -125 178 -8 9 -15 18 -15 22 0 5 -97 133
-110 145 -3 3 -16 18 -28 34 -89 116 -319 358 -457 480 -16 15 -43 39 -60 54
-16 15 -57 50 -90 77 -33 28 -61 53 -63 58 -2 4 -8 7 -13 7 -10 0 -22 9 -62
45 -12 11 -49 38 -82 60 -33 22 -62 43 -65 46 -22 25 -347 224 -456 279 -38
19 -70 38 -72 43 -2 4 -8 7 -13 7 -4 0 -41 16 -81 35 -40 20 -111 52 -158 71
-47 20 -94 40 -105 45 -99 45 -364 131 -545 178 -173 45 -161 42 -355 75 -183
32 -197 34 -285 42 -41 3 -84 8 -95 11 -22 5 -611 13 -617 8z"/>
</g>
</svg>
